# xmcd
#
# Track frame offsets:
#	150
#	20292
#	37480
#	53232
#	73905
#	91890
#	107997
#	122400
#	141180
#	154697
#	168715
#
# Disc length: 2496
#
# Revision: 3
# Processed by: cddbd v1.5.1PL0 Copyright (c) Steve Scherf et al.
# Submitted via: DiscPlay 4.0.4
# Normalized: r1:TDELIM( - );r2:TSWAP
#
DISCID=9c09be0b
DTITLE=Various Artist - Hitchhiker Exampler
DYEAR=1900
DGENRE=
TTITLE0=Rodney Crowell - The Faith Is Mine
TTITLE1=Mary Chapin Carpenter - This Shirt
TTITLE2=Darden Smith - 2000 Years
TTITLE3=Rosanne Cash - I Don't Have To Crawl
TTITLE4=Indigo Girls - Make It Easier
TTITLE5=Rodney Crowell - Tell Me The Truth
TTITLE6=The O'Kanes - The Better To Love You
TTITLE7=Shawn Colvin - Something To Believe In
TTITLE8=Darden Smith - Never A Day Goes By
TTITLE9=Mary Chapin Carpenter - Read My Lips
TTITLE10=James McMurtry - Talkin' At The Texaco
EXTD=
EXTT0=
EXTT1=
EXTT2=
EXTT3=
EXTT4=
EXTT5=
EXTT6=
EXTT7=
EXTT8=
EXTT9=
EXTT10=
PLAYORDER=
